<svg width="51" height="50" viewBox="0 0 51 50" fill="none" xmlns="http://www.w3.org/2000/svg">
<g filter="url(#filter0_d_37_681)">
<path d="M28.2633 9.0517C26.4628 10.152 25.8915 12.5118 26.9901 14.312C28.0886 16.1121 30.4472 16.6816 32.2479 15.5811C33.9076 14.5668 34.5227 12.4824 33.7484 10.7526C33.7481 10.7519 33.7478 10.7514 33.7477 10.7508C33.7358 10.7246 33.7237 10.6983 33.7111 10.6721C33.7089 10.6675 33.7067 10.6626 33.7045 10.658C33.6919 10.6317 33.679 10.6056 33.6657 10.5793C33.6652 10.5785 33.6648 10.5777 33.6644 10.5769C33.6508 10.5504 33.6369 10.5239 33.6227 10.4974C33.6192 10.4911 33.6157 10.4849 33.6123 10.4784C33.6013 10.4583 33.5901 10.4385 33.5787 10.4185C33.5746 10.4113 33.5704 10.404 33.5663 10.3969C33.5516 10.3715 33.5366 10.346 33.5212 10.3207C33.5053 10.2945 33.4889 10.2687 33.4725 10.2431C33.4657 10.2325 33.4586 10.2219 33.4515 10.2113C33.442 10.197 33.4326 10.1827 33.423 10.1685C33.4136 10.1545 33.4038 10.1407 33.3942 10.1269C33.3872 10.1168 33.3804 10.1069 33.3732 10.097C33.3616 10.0806 33.3499 10.0642 33.3378 10.048C33.3333 10.0418 33.3287 10.0357 33.3241 10.0294C33.31 10.0102 33.2954 9.99127 33.281 9.9724C33.2799 9.97084 33.2788 9.96956 33.2777 9.968C33.0458 9.66927 32.7712 9.40778 32.4646 9.19107C32.4484 9.17963 32.4321 9.16819 32.4159 9.15704C32.4125 9.15455 32.4091 9.15234 32.4055 9.15002C31.2021 8.33586 29.5829 8.24538 28.2633 9.0517Z" fill="#B53071"/>
<path d="M30.2217 9.68291C29.8242 9.15499 29.0739 9.04968 28.5458 9.44768C28.0177 9.84569 27.9118 10.5963 28.3093 11.1242C28.7067 11.6521 29.457 11.7574 29.9851 11.3594C30.5132 10.9614 30.6191 10.2108 30.2217 9.68291Z" fill="#B53071"/>
<path d="M32.7016 13.7485C32.4175 13.1518 31.7034 12.8989 31.1066 13.1836C30.5099 13.4683 30.2564 14.1828 30.5405 14.7795C30.8246 15.3761 31.5387 15.6291 32.1354 15.3444C32.7322 15.0597 32.9857 14.3452 32.7016 13.7485Z" fill="#B53071"/>
<path d="M29.6026 14.0094C29.877 13.4077 29.612 12.6978 29.0107 12.4238C28.4094 12.1498 27.6995 12.4155 27.4251 13.0172C27.1507 13.6189 27.4157 14.3288 28.017 14.6028C28.6183 14.8767 29.3282 14.6111 29.6026 14.0094Z" fill="#B53071"/>
<path d="M33.4638 11.6497C33.7382 11.048 33.4732 10.3382 32.8719 10.0642C32.2706 9.7902 31.5607 10.0559 31.2863 10.6576C31.0119 11.2593 31.2769 11.9692 31.8782 12.2431C32.4795 12.5171 33.1894 12.2514 33.4638 11.6497Z" fill="#B53071"/>
<path d="M31.0854 17.7006C30.1145 16.6185 28.4499 16.5293 27.3673 17.5014C26.2848 18.4735 26.1942 20.1386 27.1651 21.2207C28.1359 22.3028 29.8006 22.3919 30.8831 21.4199C31.9657 20.4478 32.0563 18.7826 31.0854 17.7006Z" fill="#FFF6E1"/>
<path d="M22.9246 24.4132C22.6908 22.9779 21.3377 22.0048 19.9025 22.24C18.4674 22.4751 17.4935 23.8294 17.7273 25.2648C17.9612 26.7002 19.3142 27.6732 20.7494 27.438C22.1846 27.2029 23.1585 25.8486 22.9246 24.4132Z" fill="#FFF6E1"/>
<path d="M32.4063 15.8408C30.4624 17.0287 27.9163 16.4141 26.7303 14.4706C25.5444 12.5271 26.1609 9.97983 28.1049 8.79191C29.0035 8.24269 30.0307 8.07905 30.9928 8.25362C30.2749 7.58106 29.6668 7.35328 29.2744 7.28236C28.9356 7.22126 28.6985 7.26403 28.6034 7.28863L24.8098 9.607L24.8085 9.60487C24.8005 9.61112 24.7925 9.61709 24.7837 9.62275L19.4498 13.0975L19.0854 13.32L13.5661 16.478L9.74418 18.8135C9.67934 18.8866 9.53274 19.078 9.43227 19.408C9.31611 19.7898 9.24099 20.4351 9.51074 21.3815C9.79504 20.4453 10.4098 19.6057 11.3084 19.0565C13.2523 17.8686 15.7984 18.4831 16.9843 20.4266C18.1703 22.3701 17.5538 24.9174 15.6098 26.1053C14.1926 26.9714 12.4554 26.879 11.1582 26.0125C12.0088 28.2594 13.7056 32.5888 14.7296 34.1728C15.4455 35.2802 16.1933 36.0603 16.9521 36.4909C17.6826 36.9057 18.385 36.9718 19.0395 36.6873C19.7171 36.3928 20.2802 35.7283 20.5842 34.864C20.8266 34.175 21.0239 33.0319 20.5861 31.4994C20.2471 30.3128 20.6858 29.0573 21.8903 27.7679C22.8455 26.7453 24.2598 25.7048 26.2138 24.5874C28.0997 23.3582 29.6706 22.5744 31.0159 22.1912C32.7121 21.708 34.0286 21.8908 34.9287 22.7344C36.0911 23.8242 37.1974 24.1707 37.9205 24.2696C38.8276 24.3935 39.6754 24.1959 40.2469 23.727C40.7986 23.2743 41.0607 22.619 41.0257 21.7792C40.9892 20.9068 40.6375 19.8848 39.98 18.7416C39.0395 17.1064 35.966 13.6184 34.3568 11.8352C34.5349 13.3859 33.8235 14.9747 32.4063 15.8408ZM23.3741 13.8276L24.3556 13.2277C24.7172 13.0067 25.1908 13.121 25.4114 13.4826C25.6321 13.8441 25.5174 14.318 25.1557 14.5389L24.1742 15.1388C23.8126 15.3598 23.339 15.2455 23.1184 14.8839C22.8979 14.5225 23.0126 14.0487 23.3741 13.8276ZM16.9641 17.7449L17.9455 17.145C18.3071 16.9239 18.7807 17.0383 19.0013 17.3999C19.222 17.7614 19.1073 18.2352 18.7456 18.4562L17.7641 19.0561C17.4025 19.2771 16.9289 19.1628 16.7083 18.8011C16.4878 18.4398 16.6025 17.9659 16.9641 17.7449ZM21.856 27.3457C20.4734 28.1907 18.6624 27.7535 17.8188 26.3712C16.9752 24.9889 17.4138 23.1771 18.7964 22.332C20.179 21.487 21.99 21.9243 22.8336 23.3065C23.6771 24.689 23.2385 26.5008 21.856 27.3457ZM22.8454 19.0544L22.8395 19.0582L22.8337 19.0617C22.2133 19.4409 21.4005 19.2448 21.022 18.6245C20.6434 18.0042 20.8402 17.1911 21.4606 16.8119L21.467 16.8079L21.4724 16.8046C22.0928 16.4254 22.9055 16.6215 23.2841 17.2418C23.6627 17.8621 23.4659 18.6752 22.8454 19.0544ZM30.6561 21.9679C29.2735 22.8129 27.4625 22.3757 26.6189 20.9934C25.7753 19.6112 26.2139 17.7993 27.5965 16.9543C28.9791 16.1093 30.7901 16.5465 31.6337 17.9288C32.4771 19.3109 32.0387 21.1229 30.6561 21.9679Z" fill="url(#paint0_linear_37_681)"/>
<path d="M30.2587 10.1931C30.1524 9.54064 29.5374 9.09837 28.885 9.20525C28.2327 9.31213 27.79 9.92768 27.8963 10.5801C28.0026 11.2326 28.6176 11.6748 29.27 11.568C29.9223 11.4611 30.365 10.8455 30.2587 10.1931Z" fill="#00030F"/>
<path d="M32.4779 14.8304C32.8017 14.2537 32.5972 13.524 32.021 13.2006C31.4447 12.8771 30.7151 13.0824 30.3912 13.659C30.0674 14.2357 30.272 14.9653 30.8482 15.2888C31.4244 15.6123 32.154 15.407 32.4779 14.8304Z" fill="#00030F"/>
<path d="M29.3896 14.0432C29.6921 13.4551 29.4608 12.7334 28.8731 12.4313C28.2855 12.1293 27.5638 12.3612 27.2613 12.9493C26.9589 13.5374 27.1901 14.259 27.7778 14.5611C28.3655 14.8632 29.0871 14.6313 29.3896 14.0432Z" fill="#00030F"/>
<path d="M33.2509 11.6835C33.5534 11.0954 33.3222 10.3738 32.7345 10.0717C32.1468 9.76966 31.4252 10.0016 31.1227 10.5897C30.8202 11.1778 31.0514 11.8994 31.6391 12.2015C32.2268 12.5035 32.9484 12.2717 33.2509 11.6835Z" fill="#00030F"/>
<path d="M30.925 19.1666C30.7631 18.1729 29.8265 17.4993 28.833 17.6621C27.8394 17.8249 27.1653 18.7624 27.3272 19.756C27.4891 20.7497 28.4257 21.4232 29.4192 21.2604C30.4127 21.0977 31.0869 20.1602 30.925 19.1666Z" fill="#00030F"/>
<path d="M30.1876 20.1592C30.5743 19.5729 30.4129 18.7844 29.8271 18.398C29.2412 18.0117 28.4528 18.1738 28.0661 18.7601C27.6794 19.3465 27.8408 20.135 28.4266 20.5213C29.0125 20.9077 29.8009 20.7455 30.1876 20.1592Z" fill="#B53071"/>
<path d="M28.6109 20.1078C28.3267 19.6422 28.4739 19.0342 28.9397 18.7495C29.162 18.6136 29.4169 18.5764 29.6533 18.6249C29.3459 18.4313 28.9428 18.4155 28.6116 18.6179C28.1459 18.9025 27.9987 19.5105 28.2829 19.9762C28.4312 20.2194 28.668 20.3754 28.9268 20.4285C28.8021 20.3501 28.693 20.2424 28.6109 20.1078Z" fill="#FFF6E1"/>
<path d="M21.4817 23.2254L20.9558 23.5468C20.7504 23.6724 20.4824 23.6077 20.357 23.4023L20.0362 22.8765C19.9108 22.6711 19.6428 22.6064 19.4374 22.7319L18.859 23.0853C18.6535 23.2109 18.5886 23.479 18.714 23.6844L19.0348 24.2102C19.1602 24.4156 19.0953 24.6837 18.8898 24.8093L18.3639 25.1307C18.1585 25.2562 18.0936 25.5243 18.2189 25.7297L18.5717 26.308C18.6971 26.5134 18.965 26.5781 19.1705 26.4525L19.6964 26.1311C19.9018 26.0056 20.1698 26.0703 20.2952 26.2757L20.616 26.8015C20.7414 27.0069 21.0094 27.0716 21.2148 26.946L21.7932 26.5926C21.9987 26.4671 22.0636 26.199 21.9382 25.9936L21.6174 25.4678C21.492 25.2624 21.5569 24.9943 21.7624 24.8687L22.2883 24.5473C22.4937 24.4218 22.5586 24.1536 22.4333 23.9482L22.0805 23.37C21.955 23.1647 21.6869 23.0999 21.4817 23.2254Z" fill="#00030F"/>
<path d="M17.6056 18.7964L18.5871 18.1965C18.8055 18.063 18.8746 17.7769 18.7415 17.5587C18.6082 17.3403 18.3223 17.2715 18.104 17.4048L17.1225 18.0047C16.9041 18.1381 16.835 18.4243 16.9681 18.6425C17.1014 18.8608 17.3873 18.9297 17.6056 18.7964Z" fill="#B53071"/>
<path d="M10.2543 24.6723C10.2669 24.6916 10.2794 24.7106 10.2923 24.7296C10.2963 24.7355 10.3002 24.7415 10.3042 24.7474C10.3211 24.7721 10.3384 24.7967 10.3557 24.821C10.3562 24.8216 10.3567 24.8224 10.3572 24.823C10.3743 24.8468 10.3918 24.8704 10.4096 24.8937C10.4127 24.8977 10.4157 24.9018 10.4188 24.9058C10.4364 24.929 10.4542 24.9518 10.4723 24.9743C10.4726 24.9748 10.473 24.9753 10.4734 24.9758C11.6577 26.4554 13.7916 26.8598 15.4513 25.8455C17.2518 24.7452 17.8231 22.3854 16.7245 20.5852C15.6259 18.785 13.2674 18.2156 11.4668 19.3161C10.1471 20.1226 9.48802 21.6054 9.66241 23.0487C9.66294 23.0528 9.6633 23.0568 9.66378 23.0607C9.66628 23.0805 9.66906 23.1002 9.67189 23.1203C9.72465 23.4923 9.8317 23.8558 9.99135 24.1986C9.99219 24.2002 9.99275 24.2019 9.99359 24.2035C10.0038 24.2251 10.014 24.2467 10.0246 24.2681C10.0279 24.2749 10.0313 24.2816 10.0348 24.2886C10.0438 24.3066 10.0529 24.3246 10.0622 24.3426C10.0677 24.3533 10.0734 24.3642 10.0792 24.3748C10.0872 24.3898 10.095 24.4047 10.1031 24.4195C10.1113 24.4344 10.1197 24.4495 10.1281 24.4642C10.1344 24.4753 10.1406 24.4865 10.1469 24.4975C10.1621 24.524 10.1777 24.5502 10.1936 24.5764C10.2089 24.6016 10.2247 24.6265 10.2407 24.6512C10.2452 24.6585 10.2498 24.6653 10.2543 24.6723ZM12.202 20.5209C13.338 19.8266 14.8264 20.1858 15.5195 21.3216C16.2126 22.4574 15.8522 23.9465 14.7161 24.6407C13.5801 25.335 12.0918 24.9757 11.3987 23.84C10.7056 22.7042 11.0659 21.2151 12.202 20.5209Z" fill="#B53071"/>
<path d="M24.0157 14.8792L24.9971 14.2793C25.2154 14.146 25.2846 13.8597 25.1515 13.6415C25.0183 13.4231 24.7323 13.3542 24.514 13.4876L23.5326 14.0874C23.3143 14.2207 23.2451 14.507 23.3782 14.7252C23.5114 14.9436 23.7974 15.0125 24.0157 14.8792Z" fill="#B53071"/>
<path d="M17.1102 18.6725C16.9769 18.4541 17.0462 18.1681 17.2646 18.0346L18.2461 17.4348C18.3288 17.3843 18.4211 17.3629 18.5113 17.3675C18.3817 17.318 18.2314 17.327 18.104 17.4048L17.1225 18.0047C16.9041 18.1382 16.835 18.4243 16.9681 18.6425C17.0509 18.7781 17.1926 18.856 17.3404 18.8637C17.2478 18.8285 17.1656 18.7636 17.1102 18.6725Z" fill="#FFF6E1"/>
<path d="M23.5202 14.7552C23.387 14.5368 23.4563 14.2508 23.6747 14.1173L24.6561 13.5175C24.7389 13.467 24.8312 13.4456 24.9214 13.4502C24.7918 13.4007 24.6415 13.4097 24.5141 13.4874L23.5327 14.0872C23.3144 14.2206 23.2452 14.5068 23.3783 14.7251C23.4611 14.8607 23.6027 14.9385 23.7505 14.9463C23.6579 14.9111 23.5758 14.8461 23.5202 14.7552Z" fill="#FFF6E1"/>
<path d="M15.2261 21.4273C14.5896 20.4519 13.2827 20.178 12.307 20.8154C11.3314 21.4529 11.0564 22.7604 11.6928 23.7358C12.3293 24.7112 13.6362 24.9852 14.6119 24.3477C15.5875 23.7103 15.8625 22.4028 15.2261 21.4273Z" fill="#00030F"/>
<path d="M14.8943 21.7639C14.444 20.9716 13.4366 20.695 12.6442 21.146C11.8518 21.597 11.5744 22.605 12.0246 23.3972C12.4748 24.1895 13.4822 24.4661 14.2747 24.0151C15.0671 23.5641 15.3445 22.5562 14.8943 21.7639Z" fill="#B53071"/>
<path d="M12.6869 23.4798C12.2859 22.8227 12.4936 21.9641 13.1509 21.5625C13.4648 21.3706 13.8246 21.3181 14.1585 21.3866C13.7246 21.1136 13.1557 21.0911 12.6882 21.3767C12.0309 21.7784 11.823 22.6368 12.2242 23.2941C12.4338 23.6373 12.768 23.8577 13.133 23.9326C12.9567 23.8216 12.8026 23.6695 12.6869 23.4798Z" fill="#FFF6E1"/>
<path d="M28.1098 7.1767L27.9829 6.96894C27.9525 6.9191 27.8872 6.90335 27.8373 6.93376L24.9552 8.69497C24.8156 8.78036 24.7713 8.96325 24.8566 9.10282L24.8893 9.15662C24.8961 9.16773 24.902 9.17897 24.9073 9.1906L28.1383 7.21623C28.128 7.20381 28.1183 7.19086 28.1098 7.1767Z" fill="#B53071"/>
<path d="M13.1012 16.3605L13.0684 16.3067C12.9832 16.1672 12.8004 16.123 12.6608 16.2084L9.77873 17.9696C9.72888 18 9.71308 18.0654 9.74344 18.1152L9.87032 18.323C9.87888 18.3371 9.8859 18.3517 9.89236 18.3663L13.1233 16.392C13.1155 16.3821 13.108 16.3717 13.1012 16.3605Z" fill="#B53071"/>
<path d="M21.6308 17.0644L21.6255 17.0676L21.619 17.0714C21.1417 17.363 20.9905 17.9884 21.2815 18.4654C21.5727 18.9426 22.1977 19.0933 22.6749 18.8019L22.6807 18.7983L22.6866 18.7946C23.1639 18.5029 23.3151 17.8776 23.0241 17.4005C22.7331 16.9235 22.1081 16.7728 21.6308 17.0644Z" fill="#B53071"/>
<path d="M17.7641 19.0561L18.7455 18.4562C19.1071 18.2352 19.2218 17.7613 19.0013 17.4C18.7806 17.0385 18.3069 16.9242 17.9455 17.1451L16.964 17.7449C16.6025 17.966 16.4878 18.4398 16.7083 18.8012C16.929 19.1627 17.4026 19.277 17.7641 19.0561ZM17.1225 18.0047L18.104 17.4048C18.3224 17.2713 18.6082 17.3403 18.7415 17.5587C18.8747 17.777 18.8055 18.063 18.5871 18.1965L17.6056 18.7964C17.3872 18.9299 17.1013 18.8608 16.9681 18.6425C16.835 18.4243 16.9041 18.1381 17.1225 18.0047Z" fill="#00030F"/>
<path d="M14.7162 24.6408C15.8522 23.9465 16.2128 22.4576 15.5195 21.3217C14.8264 20.1859 13.3382 19.8265 12.202 20.5209C11.066 21.2152 10.7054 22.7042 11.3987 23.84C12.0918 24.9758 13.58 25.3352 14.7162 24.6408ZM12.3605 20.7807C13.3533 20.174 14.6539 20.4879 15.2597 21.4804C15.8654 22.473 15.5504 23.7743 14.5577 24.3811C13.5649 24.9877 12.2643 24.6738 11.6585 23.6813C11.0528 22.6887 11.3678 21.3875 12.3605 20.7807Z" fill="#00030F"/>
<path d="M21.4723 16.8046L21.4669 16.808L21.4605 16.8119C20.8401 17.1911 20.6433 18.0043 21.0219 18.6245C21.4004 19.2448 22.2132 19.441 22.8336 19.0618L22.8394 19.0582L22.8453 19.0545C23.4658 18.6753 23.6626 17.8622 23.284 17.2419C22.9054 16.6216 22.0927 16.4254 21.4723 16.8046ZM22.6867 18.7946L22.6808 18.7984L22.675 18.8019C22.1977 19.0936 21.5728 18.9427 21.2816 18.4655C20.9905 17.9884 21.1418 17.3631 21.6191 17.0715L21.6256 17.0677L21.6309 17.0645C22.1082 16.7728 22.7331 16.9237 23.0243 17.4009C23.3153 17.8778 23.164 18.503 22.6867 18.7946Z" fill="#00030F"/>
<path d="M27.5965 16.9543C26.2139 17.7993 25.7753 19.6112 26.6188 20.9935C27.4624 22.3757 29.2734 22.8129 30.656 21.9679C32.0386 21.1229 32.4772 19.3111 31.6336 17.9288C30.79 16.5465 28.979 16.1093 27.5965 16.9543ZM30.4976 21.7082C29.2582 22.4655 27.6349 22.0737 26.8788 20.8346C26.1227 19.5955 26.5158 17.9714 27.755 17.2139C28.9945 16.4564 30.6177 16.8484 31.374 18.0874C32.13 19.3266 31.7368 20.9507 30.4976 21.7082Z" fill="#00030F"/>
<path d="M24.1742 15.1389L25.1557 14.539C25.5172 14.3179 25.6319 13.8441 25.4114 13.4827C25.1907 13.1212 24.7171 13.0069 24.3556 13.2278L23.3742 13.8277C23.0126 14.0488 22.8979 14.5226 23.1184 14.884C23.3391 15.2455 23.8127 15.3598 24.1742 15.1389ZM23.5326 14.0874L24.5141 13.4875C24.7324 13.3542 25.0184 13.4231 25.1516 13.6415C25.2849 13.8598 25.2156 14.1458 24.9972 14.2793L24.0157 14.8792C23.7974 15.0125 23.5115 14.9436 23.3782 14.7252C23.2451 14.507 23.3143 14.2207 23.5326 14.0874Z" fill="#00030F"/>
<path d="M18.7964 22.332C17.4138 23.177 16.9752 24.9889 17.8188 26.3711C18.6624 27.7534 20.4733 28.1906 21.8559 27.3456C23.2385 26.5006 23.6771 24.6887 22.8335 23.3065C21.9901 21.9243 20.179 21.4873 18.7964 22.332ZM21.6975 27.0859C20.458 27.8433 18.8348 27.4514 18.0785 26.2124C17.3224 24.9733 17.7156 23.3493 18.9548 22.5917C20.1941 21.8345 21.8175 22.2262 22.5738 23.4652C23.3299 24.7043 22.9368 26.3286 21.6975 27.0859Z" fill="#00030F"/>
<path d="M29.5559 10.7893C29.5455 10.8003 29.5283 10.8154 29.5044 10.8348C29.4805 10.8541 29.4559 10.8714 29.4312 10.8866C29.3791 10.9184 29.3346 10.9337 29.2979 10.932C29.2611 10.9303 29.2254 10.9011 29.1909 10.8446L29.0509 10.6151C28.9968 10.5905 28.9381 10.5628 28.8741 10.532C28.81 10.5012 28.746 10.4686 28.6818 10.435C28.6175 10.401 28.5563 10.3667 28.4975 10.3317C28.4389 10.2968 28.388 10.263 28.3446 10.2302C28.3468 10.2008 28.3556 10.1699 28.3707 10.1373C28.3859 10.1047 28.4121 10.077 28.4495 10.0541C28.4937 10.0271 28.5352 10.0142 28.574 10.0154C28.6129 10.0166 28.66 10.0345 28.7153 10.069L29.0297 10.2666L29.0399 10.2604C29.0343 10.2157 29.0287 10.1752 29.023 10.139C29.0173 10.1029 29.0112 10.0668 29.005 10.031C28.9987 9.99528 28.9923 9.95794 28.9857 9.91919C28.9791 9.88043 28.9714 9.8359 28.9623 9.78534C28.9765 9.76281 28.9943 9.74084 29.0158 9.72003C29.0373 9.69921 29.0593 9.68179 29.082 9.66789C29.1217 9.64365 29.1617 9.63345 29.2022 9.63757C29.2429 9.64153 29.2758 9.66448 29.3014 9.70638C29.3096 9.72002 29.3168 9.73818 29.3229 9.76087C29.329 9.78372 29.3338 9.82072 29.3373 9.87221C29.3407 9.92369 29.3433 9.9948 29.345 10.0855C29.3467 10.1763 29.3469 10.2959 29.3458 10.4444L29.5559 10.7893Z" fill="#FFF6E1"/>
<path d="M32.5267 11.6739C32.5075 11.6858 32.4845 11.699 32.4576 11.7137C32.4308 11.7284 32.4026 11.7426 32.3728 11.7562C32.3431 11.7698 32.3129 11.7823 32.2826 11.7938C32.2523 11.8053 32.223 11.8135 32.1948 11.8182C32.1181 11.8326 32.0617 11.8103 32.0256 11.7513L31.5414 10.9577C31.5267 10.934 31.5221 10.9116 31.5272 10.8906C31.5322 10.8697 31.5437 10.8482 31.5616 10.8265C31.5917 10.7894 31.6338 10.75 31.6878 10.7085C31.7419 10.6671 31.7994 10.6275 31.8606 10.5902C32.0056 10.5015 32.1322 10.4578 32.24 10.4587C32.348 10.4597 32.4329 10.511 32.4952 10.613C32.5263 10.6639 32.5384 10.7169 32.5314 10.7718C32.5244 10.8268 32.5011 10.8778 32.4618 10.9253C32.5282 10.9066 32.593 10.9064 32.6567 10.9252C32.7202 10.9439 32.7714 10.9849 32.8101 11.0485C32.8785 11.1607 32.8875 11.2692 32.837 11.3737C32.7866 11.4782 32.6832 11.5783 32.5267 11.6739ZM32.0171 11.0871L32.1411 11.0113C32.1898 10.9815 32.2198 10.9508 32.2308 10.9192C32.2418 10.8876 32.2366 10.8542 32.2152 10.819C32.1966 10.7883 32.1689 10.7719 32.1324 10.7692C32.0958 10.7666 32.052 10.7809 32.0011 10.8121C31.9842 10.8224 31.9649 10.835 31.9434 10.8496C31.9219 10.8641 31.9058 10.8765 31.8947 10.8863L32.0171 11.0871ZM32.27 11.5018C32.2887 11.4967 32.311 11.4872 32.337 11.4736C32.363 11.4601 32.3872 11.4465 32.41 11.4326C32.4553 11.405 32.4872 11.3724 32.5058 11.3355C32.5245 11.2984 32.5216 11.2601 32.4974 11.2204C32.4745 11.183 32.4457 11.164 32.4112 11.1634C32.3766 11.1629 32.3337 11.178 32.2829 11.2092L32.1435 11.2942L32.27 11.5018Z" fill="#FFF6E1"/>
<path d="M27.6173 13.3921C27.6133 13.3727 27.6117 13.3521 27.612 13.3301C27.6126 13.308 27.6164 13.2857 27.6238 13.2633C27.6312 13.2408 27.6425 13.2192 27.6576 13.1983C27.6729 13.1773 27.6929 13.1592 27.7178 13.1441C27.7507 13.124 27.7845 13.1145 27.8196 13.1158C27.8545 13.1169 27.8971 13.1295 27.9473 13.1531L28.2034 13.2743L28.2225 12.866C28.2288 12.8559 28.239 12.8438 28.253 12.8299C28.267 12.816 28.2819 12.8039 28.2978 12.7943C28.3499 12.7625 28.3983 12.7501 28.443 12.757C28.4878 12.7639 28.5212 12.7855 28.5431 12.8217C28.5626 12.8535 28.5715 12.8869 28.5703 12.9218C28.5692 12.9568 28.565 13.0005 28.5583 13.0529L28.5139 13.3741L29.0326 13.6008C29.0492 13.6482 29.0497 13.6934 29.0346 13.736C29.0194 13.7786 28.9863 13.8156 28.9353 13.8469C28.9024 13.867 28.8691 13.876 28.8353 13.8742C28.8014 13.8723 28.7598 13.8592 28.7108 13.8347L28.4405 13.7013L28.4234 14.1551C28.4151 14.1618 28.407 14.1678 28.3995 14.1731C28.3918 14.1786 28.3842 14.1836 28.3761 14.1886C28.3115 14.2281 28.2559 14.2442 28.2095 14.2368C28.1631 14.2294 28.1281 14.2065 28.1046 14.1681C28.0845 14.1352 28.0741 14.1024 28.0735 14.0692C28.0727 14.0362 28.0754 13.9953 28.0815 13.9465L28.12 13.6081L27.6173 13.3921Z" fill="#FFF6E1"/>
<path d="M30.9296 13.8894C30.942 13.8663 30.9645 13.8378 30.9975 13.8037C31.0303 13.7695 31.0667 13.7405 31.1064 13.7162C31.163 13.6817 31.2182 13.6591 31.2719 13.649C31.3255 13.6388 31.3692 13.6474 31.4032 13.6749C31.4594 13.7213 31.5235 13.7764 31.5949 13.84C31.6663 13.9036 31.7395 13.9697 31.8141 14.0386C31.8886 14.1073 31.9621 14.1753 32.0342 14.2425C32.1064 14.3096 32.1699 14.3693 32.2248 14.421C32.2209 14.4452 32.2083 14.4704 32.187 14.4966C32.1657 14.5227 32.1362 14.5473 32.0988 14.5702C32.0716 14.5869 32.0472 14.5986 32.0258 14.6054C32.0044 14.6123 31.985 14.6149 31.9676 14.6131C31.9501 14.6113 31.9332 14.6053 31.9168 14.5951C31.9004 14.5848 31.8835 14.5719 31.8661 14.5561L31.7639 14.4576L31.4562 14.6457C31.4678 14.6852 31.4802 14.7259 31.4934 14.7677C31.5065 14.8096 31.5188 14.8502 31.5306 14.8897C31.5181 14.9049 31.5044 14.9201 31.4892 14.9347C31.4742 14.9494 31.4541 14.9644 31.4292 14.9795C31.3714 15.0147 31.3225 15.0311 31.2828 15.0283C31.2429 15.0253 31.2123 15.0064 31.1908 14.9714C31.1812 14.9555 31.1736 14.9383 31.1686 14.9196C31.1635 14.901 31.1572 14.8792 31.1496 14.8542C31.1389 14.8188 31.1268 14.7741 31.1134 14.7202C31.0999 14.6662 31.0856 14.6077 31.0705 14.5446C31.0555 14.4815 31.0405 14.4165 31.0259 14.3489C31.0113 14.2817 30.9974 14.2182 30.9844 14.1586C30.9713 14.0989 30.96 14.0455 30.9507 13.9983C30.9409 13.9508 30.934 13.9146 30.9296 13.8894ZM31.2673 13.984C31.2806 14.0413 31.2949 14.1051 31.3107 14.1755C31.3264 14.246 31.3448 14.316 31.3656 14.3857L31.5764 14.257C31.5232 14.2055 31.4706 14.1557 31.4185 14.1072C31.3665 14.059 31.3194 14.0157 31.2776 13.9776L31.2673 13.984Z" fill="#FFF6E1"/>
<path d="M15.9058 31.8295C15.0136 30.3675 14.2222 28.5517 13.5482 26.7096C12.7028 26.727 11.8651 26.4849 11.1583 26.0123C12.0087 28.2594 13.7055 32.5888 14.7295 34.1728C15.4455 35.2802 16.1933 36.0603 16.952 36.4909C17.6825 36.9057 18.3849 36.9718 19.0394 36.6873C19.7171 36.3928 20.2801 35.7283 20.5841 34.864C20.7431 34.4123 20.8826 33.765 20.8364 32.9409C19.6212 34.3491 17.8479 35.0121 15.9058 31.8295Z" fill="#2E2594"/>
<path d="M9.43225 19.408C9.31608 19.7898 9.24096 20.4351 9.51071 21.3814C9.79353 20.4504 10.4031 19.6149 11.2936 19.0658C11.191 18.6329 11.1104 18.2757 11.0529 18.0138L9.7442 18.8137C9.67932 18.8866 9.53287 19.078 9.43225 19.408Z" fill="#2E2594"/>
<path d="M37.3581 18.7201C36.4659 17.2581 35.2132 15.7242 33.8836 14.2827C34.2852 13.5381 34.4526 12.6818 34.3556 11.8367C35.9646 13.6202 39.0383 17.1079 39.9788 18.7431C40.6363 19.8863 40.9881 20.9082 41.0244 21.7807C41.0595 22.6205 40.7973 23.2759 40.2457 23.7286C39.6743 24.1973 38.8263 24.3951 37.9193 24.2711C37.445 24.2063 36.8059 24.0348 36.0945 23.6172C37.9009 23.1785 39.3002 21.9027 37.3581 18.7201Z" fill="#2E2594"/>
<path d="M29.2727 7.2835C29.6651 7.35442 30.2733 7.5822 30.9912 8.25477C30.0345 8.08134 29.0133 8.24239 28.1183 8.78419C27.7804 8.49513 27.4996 8.26024 27.2933 8.08934L28.6019 7.28945C28.6966 7.26522 28.9336 7.22217 29.2727 7.2835Z" fill="#2E2594"/>
<path d="M34.0681 10.7252C34.0674 10.724 34.0671 10.7227 34.0665 10.7215C34.041 10.6604 34.0138 10.5999 33.9853 10.5401C33.9827 10.5347 33.9802 10.5292 33.9774 10.5237C33.9653 10.4988 33.9532 10.474 33.9406 10.4495C33.9381 10.4446 33.9358 10.4398 33.9333 10.435C33.9188 10.4068 33.9041 10.3787 33.889 10.3506C33.886 10.3452 33.8829 10.3397 33.8801 10.3342C33.8677 10.3115 33.8551 10.289 33.8423 10.2665C33.838 10.2589 33.8337 10.2514 33.8293 10.2439C33.8135 10.2166 33.7975 10.1893 33.781 10.1622C33.7639 10.1341 33.7464 10.1063 33.7287 10.0788C33.7215 10.0677 33.7141 10.0565 33.7069 10.0453C33.6966 10.0297 33.6864 10.0141 33.6758 9.99852C33.6659 9.98387 33.6558 9.96938 33.6459 9.95501C33.6381 9.94392 33.6305 9.93296 33.6228 9.92187C33.6105 9.90455 33.5981 9.88738 33.5856 9.87039C33.5807 9.86362 33.5756 9.85691 33.5707 9.85015C33.5556 9.8298 33.5402 9.80949 33.5249 9.78947C33.5243 9.78883 33.5238 9.78819 33.5234 9.78739C33.2851 9.47879 33.0092 9.21185 32.7062 8.98947C32.6983 8.9835 32.6904 8.97782 32.6824 8.97185C32.6696 8.96261 32.6567 8.95338 32.6438 8.94431C32.6279 8.9331 32.6118 8.92178 32.5957 8.91075C32.5887 8.90594 32.5818 8.90125 32.5748 8.89644C32.2669 8.68779 31.9306 8.52017 31.5733 8.4003C31.4891 8.3145 31.4115 8.23592 31.3421 8.16675C29.8752 6.70558 28.745 6.92842 28.4962 7.00232L28.4943 6.99916L28.4814 7.00693C28.4623 7.01296 28.4506 7.01751 28.4465 7.01905L28.4343 7.02381L28.4232 7.03057C28.4051 7.04154 28.3813 7.03598 28.3702 7.01773L28.2433 6.80997C28.1256 6.617 27.8725 6.55581 27.6794 6.67396L24.7973 8.43516C24.5144 8.60801 24.4246 8.97877 24.5973 9.26146L24.6301 9.31527C24.641 9.33311 24.6359 9.35619 24.6181 9.36768L19.2897 12.8389L18.933 13.057L13.4129 16.215C13.3947 16.2254 13.3719 16.2196 13.361 16.2017L13.3283 16.1479C13.1557 15.8651 12.7851 15.7756 12.5024 15.9486L9.62031 17.7098C9.4273 17.8277 9.36591 18.0809 9.4837 18.2739L9.61058 18.4816C9.62153 18.4998 9.61595 18.5235 9.5977 18.5346L9.58659 18.5414L9.57666 18.55C9.53544 18.5861 8.57552 19.4593 9.27439 21.6521C9.30406 21.7449 9.3383 21.8498 9.37635 21.9647C9.31974 22.3373 9.31503 22.7135 9.35994 23.0828C9.36088 23.0912 9.36193 23.0995 9.36303 23.108C9.36549 23.1276 9.36806 23.1469 9.37091 23.1662C9.37317 23.1818 9.37542 23.1975 9.37768 23.2131C9.37913 23.2229 9.38086 23.2326 9.38231 23.2424C9.44167 23.6139 9.55302 23.9815 9.71855 24.3346C9.71881 24.3353 9.71907 24.336 9.71961 24.3366C9.73033 24.3596 9.74145 24.3823 9.75273 24.4052C9.75641 24.4126 9.76013 24.4202 9.7638 24.4276C9.77326 24.4464 9.78289 24.4654 9.79263 24.4841C9.79879 24.4961 9.80507 24.5078 9.81139 24.5199C9.81962 24.5355 9.82795 24.551 9.83646 24.5667C9.84539 24.5831 9.85455 24.5992 9.86376 24.6155C9.87032 24.6273 9.87688 24.639 9.88356 24.6505C9.89994 24.6788 9.91661 24.7071 9.93384 24.7352C9.95032 24.7623 9.96732 24.789 9.98432 24.8158C9.98902 24.8231 9.99382 24.8303 9.99851 24.8377C10.0127 24.8594 10.0269 24.8809 10.0415 24.9024C10.0451 24.9074 10.0484 24.9126 10.0518 24.9178C10.0699 24.9441 10.0881 24.9702 10.1066 24.9959C10.1097 25.0002 10.1127 25.0044 10.1159 25.0086C10.1322 25.0311 10.1488 25.0536 10.1655 25.0755C10.169 25.0803 10.1727 25.085 10.1761 25.0897C10.2164 25.1427 10.2578 25.1945 10.3005 25.2452C10.3012 25.2459 10.302 25.247 10.3027 25.2477C10.4252 25.3931 10.5576 25.5301 10.699 25.6572C11.4724 27.7206 13.3579 32.6123 14.4736 34.3383C15.2164 35.4873 15.9996 36.3005 16.8015 36.7559C17.6082 37.2138 18.4238 37.2867 19.1603 36.9667C19.2661 36.9206 19.3693 36.8668 19.4695 36.8056C20.0842 36.4298 20.5855 35.7766 20.871 34.965C21.2397 33.917 21.2424 32.6898 20.8784 31.4156C20.5709 30.3388 20.986 29.1814 22.1123 27.9758C23.0469 26.9752 24.4388 25.9526 26.3682 24.8495L26.3721 24.8473L26.3758 24.8449C28.2375 23.6314 29.7824 22.8591 31.0988 22.4841C32.6851 22.0321 33.9035 22.1912 34.7203 22.9569C35.6867 23.8626 36.7789 24.421 37.8788 24.5714C38.8696 24.7068 39.8029 24.4851 40.4395 23.9625C41.0604 23.4532 41.3681 22.6938 41.3296 21.7664C41.2912 20.8447 40.9258 19.7761 40.2437 18.59C39.219 16.8082 35.7317 12.8954 34.2506 11.2645C34.2024 11.0806 34.1413 10.9006 34.0681 10.7252ZM32.4053 9.15013C32.4089 9.15245 32.4122 9.15482 32.4158 9.15715C32.4322 9.16842 32.4482 9.17974 32.4645 9.19118C32.7712 9.40801 33.0456 9.66954 33.2775 9.96812C33.2786 9.96967 33.2797 9.97095 33.2808 9.97251C33.2955 9.99133 33.3098 10.0104 33.324 10.0296C33.3286 10.0356 33.3331 10.0419 33.3376 10.0481C33.3496 10.0645 33.3614 10.0807 33.3731 10.0971C33.3802 10.107 33.3871 10.1169 33.3941 10.127C33.4036 10.1408 33.4134 10.1546 33.4228 10.1686C33.4324 10.1828 33.4419 10.1971 33.4513 10.2114C33.4584 10.222 33.4654 10.2325 33.4723 10.2433C33.4889 10.2689 33.505 10.2947 33.521 10.3208C33.5363 10.346 33.5514 10.3713 33.5662 10.397C33.5704 10.4043 33.5745 10.4115 33.5785 10.4186C33.5899 10.4386 33.601 10.4586 33.6122 10.4786C33.6156 10.4848 33.6191 10.4911 33.6225 10.4975C33.6367 10.524 33.6507 10.5503 33.6642 10.577C33.6647 10.5778 33.6651 10.5786 33.6655 10.5794C33.6788 10.6055 33.6916 10.6317 33.7044 10.6581C33.7066 10.6627 33.7088 10.6676 33.711 10.6722C33.7234 10.6983 33.7355 10.7246 33.7475 10.7509C33.7478 10.7516 33.7482 10.7521 33.7483 10.7527C34.5226 12.4825 33.9074 14.5669 32.2477 15.5812C30.4472 16.6815 28.0886 16.1123 26.99 14.3121C25.8915 12.512 26.4626 10.1523 28.2632 9.05181C29.5829 8.24532 31.202 8.33581 32.4053 9.15013ZM24.8893 9.15664L24.8565 9.10283C24.7713 8.96327 24.8156 8.78037 24.9552 8.69498L27.8373 6.93378C27.8872 6.90336 27.9525 6.91912 27.9829 6.96895L28.1098 7.17672C28.1183 7.19087 28.1281 7.20366 28.1383 7.21624L24.9073 9.19061C24.9018 9.17915 24.896 9.16774 24.8893 9.15664ZM9.87025 18.3231L9.74337 18.1153C9.71301 18.0655 9.72881 18.0001 9.77866 17.9697L12.6607 16.2085C12.8003 16.1231 12.9833 16.1674 13.0684 16.3068L13.1011 16.3606C13.1079 16.3717 13.1154 16.3821 13.1231 16.3922L9.89217 18.3666C9.88595 18.3516 9.87893 18.3371 9.87025 18.3231ZM10.1469 24.4976C10.1406 24.4866 10.1344 24.4754 10.1281 24.4643C10.1196 24.4495 10.1113 24.4345 10.1031 24.4196C10.095 24.4048 10.087 24.3898 10.0792 24.3749C10.0736 24.3641 10.0679 24.3535 10.0622 24.3427C10.0529 24.3247 10.0439 24.3067 10.0348 24.2887C10.0315 24.2819 10.0281 24.2752 10.0246 24.2682C10.0141 24.2466 10.0038 24.2252 9.99362 24.2036C9.99277 24.202 9.99221 24.2003 9.99137 24.1987C9.83172 23.8559 9.72467 23.4924 9.67192 23.1204C9.66913 23.1006 9.66619 23.0808 9.66381 23.0608C9.66328 23.0567 9.6628 23.0528 9.66243 23.0488C9.48805 21.6055 10.1472 20.1227 11.4668 19.3162C13.2673 18.2159 15.6261 18.7852 16.7245 20.5853C17.823 22.3854 17.2518 24.7453 15.4513 25.8456C13.7916 26.8599 11.6578 26.4555 10.4736 24.9761C10.4732 24.9756 10.4728 24.975 10.4725 24.9745C10.4544 24.952 10.4367 24.929 10.419 24.9061C10.4159 24.9021 10.4129 24.8979 10.4098 24.8939C10.3921 24.8705 10.3747 24.8472 10.3574 24.8233C10.3569 24.8226 10.3564 24.8218 10.3559 24.8212C10.3384 24.7969 10.3213 24.7723 10.3044 24.7476C10.3004 24.7417 10.2963 24.7358 10.2925 24.7298C10.2796 24.7108 10.2669 24.6917 10.2545 24.6725C10.25 24.6655 10.2455 24.6585 10.2409 24.6515C10.2249 24.6267 10.2092 24.6017 10.1938 24.5766C10.1777 24.5503 10.1621 24.5241 10.1469 24.4976ZM39.98 18.7419C40.6375 19.8851 40.9894 20.907 41.0257 21.7795C41.0608 22.6193 40.7986 23.2746 40.247 23.7273C39.6756 24.196 38.8276 24.3938 37.9205 24.2698C37.1972 24.171 36.091 23.8243 34.9288 22.7347C34.0287 21.8909 32.7123 21.7081 31.0159 22.1915C29.6706 22.5747 28.0997 23.3585 26.2138 24.5877C24.2597 25.7053 22.8454 26.7458 21.8904 27.7682C20.6861 29.0575 20.2473 30.3129 20.5861 31.4997C21.0239 33.0322 20.8267 34.1753 20.5842 34.8643C20.2801 35.7285 19.7172 36.3931 19.0395 36.6876C18.385 36.9721 17.6829 36.9059 16.9521 36.4912C16.1932 36.0605 15.4456 35.2805 14.7296 34.1731C13.7054 32.5889 12.0088 28.2597 11.1584 26.0126C12.4554 26.8793 14.1927 26.9715 15.61 26.1054C17.5539 24.9175 18.1704 22.3702 16.9845 20.4267C15.7986 18.4832 13.2524 17.8688 11.3085 19.0566C10.4101 19.6056 9.79535 20.4455 9.51088 21.3816C9.24102 20.4354 9.31626 19.7899 9.43242 19.4082C9.53288 19.0781 9.67949 18.8867 9.74433 18.8136L13.5663 16.4781L19.0855 13.3202L19.4499 13.0976L24.7838 9.62287C24.7924 9.61726 24.8007 9.61124 24.8087 9.60499L24.8099 9.60712L28.6035 7.28875C28.6988 7.26427 28.9357 7.22138 29.2745 7.28248C29.6669 7.3534 30.2751 7.58118 30.993 8.25375C30.0307 8.07933 29.0037 8.2431 28.105 8.79204C26.1611 9.97995 25.5447 12.5274 26.7305 14.4708C27.9164 16.4143 30.4626 17.0286 32.4065 15.8409C33.8237 14.9748 34.535 13.386 34.357 11.8356C35.9659 13.6189 39.0395 17.1067 39.98 18.7419Z" fill="#00030F"/>
<path d="M22.388 17.1863C22.2816 17.0121 21.955 17.0178 21.6584 17.199C21.3618 17.3803 21.2075 17.6685 21.3139 17.8427C21.4202 18.017 21.7468 18.0113 22.0434 17.83C22.34 17.6487 22.4943 17.3606 22.388 17.1863Z" fill="#FFF6E1"/>
<path d="M17.0798 14.8417C18.0041 16.3565 19.7242 17.0924 21.3971 16.8533C21.4179 16.8389 21.4389 16.825 21.4607 16.8117L21.467 16.8078L21.4724 16.8044C21.7337 16.6447 22.0289 16.5875 22.3115 16.6204C22.5765 16.5218 22.8361 16.3966 23.0866 16.2435C23.632 15.9103 24.0801 15.479 24.4218 14.9871L24.1741 15.1385C23.8125 15.3595 23.3389 15.2452 23.1183 14.8836C22.8976 14.5221 23.0123 14.0482 23.374 13.8273L24.3555 13.2274C24.6059 13.0745 24.9098 13.0822 25.1462 13.2215C25.3176 12.2283 25.146 11.1768 24.5838 10.2554C24.5098 10.1342 24.4305 10.0179 24.3466 9.90677L19.4492 13.0971L19.0848 13.3197L16.9211 14.5583C16.9699 14.6539 17.0229 14.7485 17.0798 14.8417Z" fill="#2E2594"/>
<path d="M32.4206 17.7571C32.0803 17.1568 31.9612 16.6009 31.9664 16.0743C30.0936 16.9303 27.8287 16.2704 26.7302 14.4706C26.6023 14.2611 26.4957 14.0447 26.4091 13.8236C26.422 14.557 26.6983 15.291 27.1002 15.8323C27.4546 16.3097 27.6975 16.6109 27.8092 16.836C29.1596 16.1559 30.8328 16.6163 31.6335 17.9285C32.4771 19.3107 32.0385 21.1226 30.6559 21.9676C29.2734 22.8126 27.4624 22.3754 26.6188 20.9931C26.6142 20.9859 26.6103 20.9785 26.6058 20.9713C26.6209 21.785 27.4495 22.5024 26.8621 22.8446C26.1318 23.2703 23.7603 25.0289 23.324 23.9758C23.1333 23.5159 22.8939 23.2274 22.6365 23.0228C22.7068 23.1124 22.7727 23.207 22.8333 23.3064C23.6769 24.6886 23.2383 26.5005 21.8557 27.3455C20.984 27.8783 19.9419 27.901 19.0795 27.4988C19.2143 27.8814 19.3546 28.313 19.4811 28.7988C19.7362 29.7784 20.1227 30.4078 20.4769 30.8063C20.4446 29.8278 20.9176 28.8087 21.8901 27.7678C22.8453 26.7452 24.2595 25.7047 26.2135 24.5873C28.0994 23.3581 29.6703 22.5743 31.0156 22.191C32.3475 21.8116 33.445 21.843 34.2908 22.2822C33.7943 21.8937 33.0471 21.5664 33.0689 20.9487C33.1014 20.0219 33.2278 19.1815 32.4206 17.7571Z" fill="#2E2594"/>
<path d="M23.2357 19.3697C23.9286 18.9463 24.1476 18.0416 23.7249 17.3489C23.4455 16.8912 22.9559 16.6408 22.4557 16.6457C22.7889 16.7225 23.0923 16.9277 23.2839 17.242C23.6625 17.8623 23.4657 18.6754 22.8453 19.0546L22.8393 19.0584L22.8335 19.0619C22.2978 19.3893 21.6191 19.2875 21.1999 18.8543C21.2052 18.8636 21.2104 18.8731 21.2161 18.8822C21.6387 19.5746 22.5428 19.793 23.2357 19.3697Z" fill="#2E2594"/>
</g>
<defs>
<filter id="filter0_d_37_681" x="0.0202904" y="0.61377" width="50.3125" height="48.5488" filterUnits="userSpaceOnUse" color-interpolation-filters="sRGB">
<feFlood flood-opacity="0" result="BackgroundImageFix"/>
<feColorMatrix in="SourceAlpha" type="matrix" values="0 0 0 0 0 0 0 0 0 0 0 0 0 0 0 0 0 0 127 0" result="hardAlpha"/>
<feOffset dy="3"/>
<feGaussianBlur stdDeviation="4.5"/>
<feComposite in2="hardAlpha" operator="out"/>
<feColorMatrix type="matrix" values="0 0 0 0 0.180392 0 0 0 0 0.160784 0 0 0 0 0.611765 0 0 0 0.7 0"/>
<feBlend mode="normal" in2="BackgroundImageFix" result="effect1_dropShadow_37_681"/>
<feBlend mode="normal" in="SourceGraphic" in2="effect1_dropShadow_37_681" result="shape"/>
</filter>
<linearGradient id="paint0_linear_37_681" x1="11.3177" y1="11.1888" x2="71.4884" y2="56.4708" gradientUnits="userSpaceOnUse">
<stop stop-color="#2E2594"/>
<stop offset="1" stop-color="#F73B6C"/>
</linearGradient>
</defs>
</svg>
