<svg>
  <symbol id="twitter" width="21" height="22" viewBox="0 0 21 22" xmlns="http://www.w3.org/2000/svg">
    <path d="M10.5 0.292969C4.70156 0.292969 0 4.99453 0 10.793C0 16.5914 4.70156 21.293 10.5 21.293C16.2984 21.293 21 16.5914 21 10.793C21 4.99453 16.2984 0.292969 10.5 0.292969ZM15.5461 8.20781C15.5531 8.31797 15.5531 8.43281 15.5531 8.54531C15.5531 11.9859 12.9328 15.9492 8.14453 15.9492C6.66797 15.9492 5.29922 15.5203 4.14609 14.782C4.35703 14.8055 4.55859 14.8148 4.77422 14.8148C5.99297 14.8148 7.11328 14.4023 8.00625 13.7039C6.8625 13.6805 5.90156 12.9305 5.57344 11.8992C5.97422 11.9578 6.33516 11.9578 6.74766 11.8523C6.15873 11.7327 5.62939 11.4129 5.24957 10.9471C4.86974 10.4814 4.66286 9.89861 4.66406 9.29766V9.26484C5.00859 9.45937 5.41406 9.57891 5.83828 9.59531C5.48166 9.35764 5.1892 9.03565 4.98682 8.65788C4.78445 8.28012 4.67841 7.85825 4.67813 7.42969C4.67813 6.94453 4.80469 6.50156 5.03203 6.11719C5.68571 6.92188 6.5014 7.58002 7.42609 8.04883C8.35078 8.51763 9.36377 8.78661 10.3992 8.83828C10.0312 7.06875 11.3531 5.63672 12.9422 5.63672C13.6922 5.63672 14.3672 5.95078 14.843 6.45703C15.4312 6.34688 15.9937 6.12656 16.4953 5.83125C16.3008 6.43359 15.893 6.94219 15.3516 7.26328C15.8766 7.20703 16.3828 7.06172 16.8516 6.85781C16.4977 7.37813 16.0547 7.83984 15.5461 8.20781Z"/>
  </symbol>

  <symbol id="pinterest" width="21" height="22" viewBox="0 0 21 22" xmlns="http://www.w3.org/2000/svg">
    <path d="M10.5 0.292969C4.70094 0.292969 0 4.99391 0 10.793C0 16.592 4.70094 21.293 10.5 21.293C16.2991 21.293 21 16.592 21 10.793C21 4.99391 16.2991 0.292969 10.5 0.292969ZM11.2186 13.2812C10.5448 13.2298 10.2627 12.8962 9.73547 12.5769C9.44563 14.0983 9.09125 15.5573 8.04125 16.3197C7.71641 14.0184 8.51594 12.2925 8.88781 10.4583C8.25453 9.39188 8.96328 7.24703 10.2998 7.77422C11.9438 8.42609 8.87578 11.7391 10.9353 12.1536C13.0856 12.5845 13.9639 8.42172 12.6306 7.06984C10.7034 5.11531 7.02297 7.025 7.47578 9.82281C7.58516 10.5064 8.29281 10.7142 7.75797 11.6581C6.52531 11.3847 6.15672 10.4123 6.20484 9.11625C6.28031 6.99438 8.11125 5.50797 9.94656 5.30344C12.2686 5.04531 14.4473 6.15547 14.7492 8.34078C15.0872 10.8061 13.7003 13.4738 11.2186 13.2812Z"/>
  </symbol>

  <symbol id="location" width="16" height="21" viewBox="0 0 16 21" xmlns="http://www.w3.org/2000/svg">
    <path d="M8.00008 0.292969C3.58908 0.292969 8.14446e-05 3.88197 8.14446e-05 8.28797C-0.0289186 14.733 7.69608 20.077 8.00008 20.293C8.00008 20.293 16.0291 14.733 16.0001 8.29297C16.0001 3.88197 12.4111 0.292969 8.00008 0.292969ZM8.00008 12.293C5.79008 12.293 4.00008 10.503 4.00008 8.29297C4.00008 6.08297 5.79008 4.29297 8.00008 4.29297C10.2101 4.29297 12.0001 6.08297 12.0001 8.29297C12.0001 10.503 10.2101 12.293 8.00008 12.293Z"/>
  </symbol>

  <symbol id="tell" width="16" height="17" viewBox="0 0 16 17" xmlns="http://www.w3.org/2000/svg">
    <path d="M15.5437 11.5991L12.0437 10.0991C11.8941 10.0354 11.728 10.022 11.5701 10.0609C11.4123 10.0997 11.2714 10.1888 11.1686 10.3147L9.61861 12.2085C7.18598 11.0616 5.22828 9.10386 4.08132 6.67124L5.97511 5.12121C6.10126 5.01861 6.19055 4.8777 6.22945 4.71981C6.26836 4.56193 6.25477 4.39566 6.19074 4.24619L4.69071 0.746131C4.62043 0.585006 4.49613 0.453452 4.33925 0.374155C4.18237 0.294858 4.00273 0.272787 3.83132 0.311748L0.58126 1.06176C0.415998 1.09992 0.26855 1.19298 0.162983 1.32573C0.0574152 1.45848 -3.80697e-05 1.6231 1.8926e-08 1.79271C1.8926e-08 9.80848 6.49699 16.293 14.5003 16.293C14.6699 16.2931 14.8346 16.2357 14.9674 16.1301C15.1002 16.0245 15.1933 15.877 15.2315 15.7117L15.9815 12.4617C16.0202 12.2894 15.9977 12.1091 15.9178 11.9516C15.8379 11.7942 15.7056 11.6696 15.5437 11.5991Z"/>
  </symbol>

  <symbol id="linkedin" width="21" height="22" viewBox="0 0 21 22" xmlns="http://www.w3.org/2000/svg">
    <path d="M10.5 0.292969C4.70094 0.292969 0 4.99391 0 10.793C0 16.592 4.70094 21.293 10.5 21.293C16.2991 21.293 21 16.592 21 10.793C21 4.99391 16.2991 0.292969 10.5 0.292969ZM7.92969 15.145H5.80344V8.3025H7.92969V15.145ZM6.85344 7.4625C6.18187 7.4625 5.74766 6.98672 5.74766 6.39828C5.74766 5.79781 6.195 5.33625 6.88078 5.33625C7.56656 5.33625 7.98656 5.79781 7.99969 6.39828C7.99969 6.98672 7.56656 7.4625 6.85344 7.4625ZM15.6953 15.145H13.5691V11.353C13.5691 10.4703 13.2606 9.87094 12.4917 9.87094C11.9044 9.87094 11.5555 10.2767 11.4013 10.6672C11.3444 10.8061 11.3302 11.003 11.3302 11.1988V15.1439H9.20281V10.4845C9.20281 9.63031 9.17547 8.91609 9.14703 8.30141H10.9944L11.0917 9.25187H11.1344C11.4144 8.80562 12.1002 8.14719 13.2475 8.14719C14.6464 8.14719 15.6953 9.08453 15.6953 11.0992V15.145Z"/>
  </symbol>

  <symbol id="instagram" width="21" height="22" viewBox="0 0 21 22" xmlns="http://www.w3.org/2000/svg">
    <path d="M13.7812 10.793C13.7812 11.6632 13.4355 12.4978 12.8202 13.1132C12.2048 13.7285 11.3702 14.0742 10.5 14.0742C9.62976 14.0742 8.79516 13.7285 8.17981 13.1132C7.56445 12.4978 7.21875 11.6632 7.21875 10.793C7.21875 10.6059 7.23844 10.4233 7.27234 10.2461H6.125V14.6178C6.125 14.9219 6.37109 15.168 6.67516 15.168H14.3259C14.4717 15.1677 14.6113 15.1096 14.7143 15.0064C14.8172 14.9033 14.875 14.7635 14.875 14.6178V10.2461H13.7277C13.7616 10.4233 13.7812 10.6059 13.7812 10.793ZM10.5 12.9805C10.7873 12.9804 11.0718 12.9237 11.3373 12.8137C11.6027 12.7037 11.8439 12.5424 12.047 12.3392C12.2502 12.136 12.4113 11.8947 12.5212 11.6292C12.631 11.3638 12.6876 11.0792 12.6875 10.7919C12.6874 10.5045 12.6308 10.22 12.5207 9.95459C12.4107 9.68915 12.2495 9.44798 12.0462 9.24485C11.843 9.04172 11.6018 8.88061 11.3363 8.77072C11.0708 8.66083 10.7862 8.6043 10.4989 8.60437C9.9186 8.60452 9.36212 8.83518 8.95188 9.24563C8.54165 9.65607 8.31126 10.2127 8.31141 10.793C8.31155 11.3733 8.54222 11.9298 8.95266 12.34C9.3631 12.7502 9.91969 12.9806 10.5 12.9805ZM13.125 8.49609H14.4364C14.5235 8.49609 14.6071 8.46156 14.6688 8.40005C14.7305 8.33855 14.7653 8.25509 14.7656 8.16797V6.85656C14.7656 6.76925 14.7309 6.68551 14.6692 6.62377C14.6075 6.56203 14.5237 6.52734 14.4364 6.52734H13.125C13.0377 6.52734 12.9539 6.56203 12.8922 6.62377C12.8305 6.68551 12.7958 6.76925 12.7958 6.85656V8.16797C12.7969 8.34844 12.9445 8.49609 13.125 8.49609ZM10.5 0.292969C7.71523 0.292969 5.04451 1.39922 3.07538 3.36835C1.10625 5.33748 0 8.0082 0 10.793C0 13.5777 1.10625 16.2485 3.07538 18.2176C5.04451 20.1867 7.71523 21.293 10.5 21.293C11.8789 21.293 13.2443 21.0214 14.5182 20.4937C15.7921 19.966 16.9496 19.1926 17.9246 18.2176C18.8996 17.2426 19.6731 16.0851 20.2007 14.8111C20.7284 13.5372 21 12.1718 21 10.793C21 9.41409 20.7284 8.04871 20.2007 6.77479C19.6731 5.50087 18.8996 4.34336 17.9246 3.36835C16.9496 2.39333 15.7921 1.61991 14.5182 1.09223C13.2443 0.564559 11.8789 0.292969 10.5 0.292969ZM15.9688 15.0466C15.9688 15.7148 15.4219 16.2617 14.7536 16.2617H6.24641C5.57812 16.2617 5.03125 15.7148 5.03125 15.0466V6.53937C5.03125 5.87109 5.57812 5.32422 6.24641 5.32422H14.7536C15.4219 5.32422 15.9688 5.87109 15.9688 6.53937V15.0466Z"/>
  </symbol>

  <symbol id="facebook" width="21" height="22" viewBox="0 0 21 22" xmlns="http://www.w3.org/2000/svg">
    <path d="M21 10.8573C21 5.02263 16.2992 0.292969 10.5013 0.292969C4.70079 0.294281 0 5.02263 0 10.8586C0 16.1302 3.8399 20.5003 8.85827 21.293V13.9111H6.19423V10.8586H8.86089V8.52919C8.86089 5.88221 10.4291 4.42027 12.8268 4.42027C13.9764 4.42027 15.1772 4.6263 15.1772 4.6263V7.22473H13.853C12.5499 7.22473 12.143 8.03969 12.143 8.87565V10.8573H15.0538L14.5892 13.9098H12.1417V21.2917C17.1601 20.499 21 16.1289 21 10.8573Z"/>
  </symbol>

  <symbol id="envelope" width="17" height="15" viewBox="0 0 17 15" xmlns="http://www.w3.org/2000/svg">
    <path d="M2.80002 0.292969C2.05741 0.292969 1.34521 0.58797 0.820108 1.11308C0.295002 1.63818 0 2.35038 0 3.09299V3.3744L8.40007 7.89783L16.8001 3.3758V3.09299C16.8001 2.35038 16.5051 1.63818 15.98 1.11308C15.4549 0.58797 14.7427 0.292969 14.0001 0.292969H2.80002Z" />
    <path d="M16.8001 4.96436L8.73188 9.30859C8.6299 9.36349 8.51589 9.39223 8.40007 9.39223C8.28426 9.39223 8.17025 9.36349 8.06827 9.30859L0 4.96436V11.4926C0 12.2352 0.295002 12.9474 0.820108 13.4725C1.34521 13.9976 2.05741 14.2926 2.80002 14.2926H14.0001C14.7427 14.2926 15.4549 13.9976 15.98 13.4725C16.5051 12.9474 16.8001 12.2352 16.8001 11.4926V4.96436Z" />
  </symbol>



</svg>